<svg xmlns="http://www.w3.org/2000/svg" version="1.1" viewBox="0 0 1401 2048" width="1280px" height="1280px">
<path transform="translate(621,484)" d="m0 0h2l20 49 16 39 1 9-2 57v15l9 44 19 87 1 7v14l-2 62-2 22-14 102-6 34-18 96-3 15 1 10 15 44 12 34 3 3 38 19 7 8 12 19 16 25 11 17 7 19 12 36 12 37 7 18 10 16 10 15 13 20 11 17 18 37 13 28 19 40 16 34 3 5 36 6 96 15 7 2 53 53 23 12 116 58 16 5 58 15 5 3 24 36 13 19 23 34 8 12-1 3-16 12-18 14-20 15-14 11-21 16-17 12-46 32-4 3-19-1-80-7-2-7-4-25v-8l7-7 8-7 11-10 8-7 10-9 8-7 10-9 8-7 1-5-16-46-1-2-256-74-14-5-126-54-19-14-13-10-21-16-16-12-21-16-16-12-10-9-13-18-12-17-26-36-12-17-26-36-10-14-3-1-35 10-88 26-34 10-12 2-127 10h-8l24 76 5 18-31 93v12l25 125 12 36 20 58 15 42v4l-42 1-210 2h-37l-3-12-6-30 1-4 22-14 21-13 20-9 45-19 24-10v-138l-9-49-18-95-18-67v-13l10-95 5-5 16-11 20-14 23-16 17-12 20-14 14-9 23-12 22-12 27-14 19-10 55-21 32-12h2l6-37 1-11-5-13-18-43-12-29-31-93-2-16-4-72v-25l7-61 2-5 9-10 7-8 11-12 7-8 11-12 5-5 26-11 42-17h2l-6-16-2-7-35 5-4-1-10-16-10-18-21-42v-7l16-68 10-48 6-30 4-4 18-11 20-13 19-12h82l-3 11-20 64-7 23-3 54-5 105-1 8 14 1v-40l2-86 4-23 14-72 3-8 10-16 16-24 19-29z" fill="#d93145" data-originalfillcolor="#be123c"></path>
<path transform="translate(338,21)" d="m0 0h26l31 3 24 4 26 7 25 9 20 9 24 13 10 8 9 8 11 14 12 17 13 18 11 18 9 19 6 24 6 36 2 20v48l13 1 30 4h3l8-17 12-21 11-16 11-14 9-10 7-8 15-14 17-13 15-10 16-9 19-9 25-9 26-7 29-5 20-2h44l27 3 24 5 24 7 24 10 17 9 12 8 12 9 14 12 8 8 9 11 11 15 9 16 11 21 11 27 7 24 5 24 3 23 1 13v31l-3 31-6 31-8 27-11 28-10 20-12 20-12 16-8 10-9 10-18 18-14 11-16 11-21 12-23 10-21 7-21 5-20 3-13 1h-24l-26-3-20-4-24-7-25-10-20-10-18-11-17-12-16-13-13-12-15-15-7-8-11-14-16-24-8-11-11-13-4-8-8-27-5-27-2-19v-40l3-25 5-25 1-4-12-1-26-4-4 19-9 26-12 25-8 13-18 27-9 11-8 6-4 2h-5l-4-4-2-6v-59l2-20 3-12 7-14 9-10 9-8 3-5h-7l-2 4-34 14h-2l-4 17-2 34-1 27v16l7 58v8l-35 8-8 4-16 12-4 5-18 36h-5l-1-1-2-40-1-28 14-47 5-30 1-9 1-39 6-43 1-22h-11l-6 33v27l1 8v17l-3 21-6 24-7 20-4 10-2 14-2 29-3 12-4 6-10 4-12 2h-14l-16-1h-21l-8 1h-17l-20-4-19-7-24-12-36-21-13-13-11-14-13-17-10-15-25-40-8-13-9-19-6-20-4-25-2-21v-24l3-29 5-24 7-24 11-27 13-25 9-15 10-17 14-19 12-13 16-16 13-10 24-16 12-6 16-5 15-3 21-2 28-1zm167 204-16 4-11 6-12 11-7 11-9 18 16 2 7-9 12-13 5-4 15-5 5 1 11 9 11 10 8 7 1 5v9l11 2h8v-14l-4-14-6-12-9-10-8-7-10-5-10-2z" fill="#dd3148" data-originalfillcolor="#BE123C"></path>
<path transform="translate(342,214)" d="m0 0h17l13 4 10 6 9 9 7 14 2 9v8l-13-1-43-6h-9l-6 5-3 7-1 10 2 5 2 2 31 5 28 4v3l-12 12-14 8-13 4-6 1h-11l-12-3-10-5-10-9-6-9-4-10-1-4v-17l4-14 7-12 9-10 9-7 12-6z" fill="#d93145" data-originalfillcolor="#be123c"></path>
<path transform="translate(892,341)" d="m0 0h8l10 2 11 7 6 8 4 11v11l-4 13-7 10-8 7-10 5-9 2h-11l-10-3-8-6-6-7-4-9v-17l4-10 6-9 9-8 10-5z" fill="#dd3148" data-originalfillcolor="#BE123C"></path>
</svg>